<svg xmlns="http://www.w3.org/2000/svg" viewBox="0 0 512 512" width="100%" height="100%">
  <defs>
    <radialGradient id="bgGlowFav" cx="45%" cy="35%" r="70%">
      <stop offset="0%" stop-color="#19489e" />
      <stop offset="45%" stop-color="#0f2b69" />
      <stop offset="100%" stop-color="#040b1e" />
    </radialGradient>
    <linearGradient id="cyanSwooshFav" x1="0%" y1="0%" x2="100%" y2="100%">
      <stop offset="0%" stop-color="#38bdf8" />
      <stop offset="40%" stop-color="#00f3ff" />
      <stop offset="100%" stop-color="#0284c7" />
    </linearGradient>
    <linearGradient id="goldSwooshFav" x1="10%" y1="0%" x2="90%" y2="100%">
      <stop offset="0%" stop-color="#fef08a" />
      <stop offset="40%" stop-color="#f59e0b" />
      <stop offset="100%" stop-color="#b45309" />
    </linearGradient>
    <linearGradient id="greenCellFav" x1="0%" y1="0%" x2="100%" y2="100%">
      <stop offset="0%" stop-color="#10b981" />
      <stop offset="100%" stop-color="#047857" />
    </linearGradient>
  </defs>
  <rect x="20" y="20" width="472" height="472" rx="112" ry="112" fill="url(#bgGlowFav)" />
  <path d="M 370 170 C 445 225, 480 320, 420 405 C 380 460, 290 445, 230 435 C 310 450, 400 420, 435 365 C 475 295, 440 220, 370 170 Z" fill="url(#goldSwooshFav)" />
  <rect x="95" y="105" width="310" height="285" rx="30" ry="30" fill="#ffffff" stroke="#cbd5e1" stroke-width="3" />
  <g stroke="#94a3b8" stroke-width="2" opacity="0.8">
    <line x1="158" y1="105" x2="158" y2="390" />
    <line x1="240" y1="105" x2="240" y2="390" />
    <line x1="322" y1="105" x2="322" y2="390" />
    <line x1="95" y1="176" x2="405" y2="176" />
    <line x1="95" y1="248" x2="405" y2="248" />
    <line x1="95" y1="320" x2="405" y2="320" />
  </g>
  <!-- Green Assignment Cells -->
  <rect x="246" y="181" width="70" height="62" rx="14" ry="14" fill="url(#greenCellFav)" />
  <rect x="164" y="253" width="70" height="62" rx="14" ry="14" fill="url(#greenCellFav)" />
  <rect x="328" y="325" width="70" height="62" rx="14" ry="14" fill="url(#greenCellFav)" />
  <!-- Circuit connecting -->
  <path d="M 281 212 L 216 212 L 216 284 M 216 284 L 216 342 L 363 342 L 363 355" fill="none" stroke="#22c55e" stroke-width="6" stroke-linecap="round" stroke-linejoin="round" />
  <!-- Nodes -->
  <circle cx="281" cy="212" r="10" fill="#ffffff" />
  <circle cx="199" cy="284" r="10" fill="#ffffff" />
  <circle cx="363" cy="355" r="10" fill="#ffffff" />
  <!-- Top Left Swoosh -->
  <path d="M 20 230 C 50 130, 110 50, 230 40 C 290 35, 330 65, 330 65 C 330 65, 230 45, 150 90 C 80 130, 45 200, 20 230 Z" fill="url(#cyanSwooshFav)" />
  <!-- Bottom Right Swoosh Front -->
  <path d="M 405 175 C 475 250, 475 350, 420 415 C 365 480, 260 440, 200 425 C 275 435, 370 425, 415 370 C 460 310, 450 230, 405 175 Z" fill="url(#goldSwooshFav)" />
</svg>
